<svg width="1000" height="600" xmlns="http://www.w3.org/2000/svg"><path fill="#fdfdfd" d="M0 0h1000v600H0z"/><path d="M0 66h0c51.871-1.654 103.743-3.309 160-5 56.257-1.691 116.901-3.42 176-4 59.099-.58 116.654-.015 174 5 57.346 5.015 114.485 14.478 164 13 49.515-1.478 91.408-13.898 151-15 59.592-1.102 136.883 9.114 169 12 32.117 2.886 19.058-1.557 46-6" fill="none" stroke="#f1f1f1" stroke-linecap="round"/><path d="M0 133h0c58.84-.978 117.679-1.957 173 1s107.125 9.849 161 8c53.875-1.849 109.823-12.437 169-16 59.177-3.563 121.584-.1 174 2s94.843 2.834 153 1 132.045-6.238 163-6c30.955.238 18.978 5.12 47 10" fill="none" stroke="#f3f3f3" stroke-linecap="round"/><path d="M0 200h0c50.863.877 101.725 1.753 155 2 53.275.247 108.961-.137 169 1s124.43 3.794 180 6c55.57 2.206 102.318 3.963 155-1s111.3-16.644 173-16c61.7.644 126.486 13.613 155 17 28.514 3.387 20.757-2.806 53-9" fill="none" stroke="#f7f7f7" stroke-linecap="round"/><path d="M0 266h0c52.589 2.923 105.177 5.847 159 7 53.823 1.153 108.88.536 167 1 58.12.464 119.303 2.008 175-2s105.909-13.57 159-14c53.091-.43 109.063 8.269 175 13s141.84 5.495 171 4c29.16-1.495 11.58-5.247 34-9" fill="none" stroke="#f1f1f1" stroke-linecap="round"/><path d="M0 333h0c49.458-1.716 98.915-3.431 154-1 55.085 2.431 115.796 9.009 175 7 59.204-2.009 116.9-12.605 172-15 55.1-2.395 107.604 3.41 161 4 53.396.59 107.683-4.033 172-3 64.317 1.033 138.662 7.724 168 10 29.338 2.276 13.67.138 38-2" fill="none" stroke="#f7f7f7" stroke-linecap="round"/><path d="M0 400h0c56.08-4.35 112.159-8.7 168-9 55.841-.3 111.444 3.453 168 8 56.556 4.547 114.066 9.89 169 7 54.934-2.89 107.292-14.012 162-16 54.708-1.988 111.768 5.157 177 7s138.638-1.616 166-2c27.362-.384 8.681 2.308 30 5" fill="none" stroke="#f0f0f0" stroke-linecap="round"/><path d="M0 466h0c52.65-1.377 105.3-2.754 158-5s105.452-5.362 164-4 122.893 7.202 180 9 106.977-.446 160 1c53.023 1.446 109.198 6.582 171 8 61.802 1.418 129.229-.88 158-3 28.771-2.12 18.885-4.06 49-6" fill="none" stroke="#fafafa" stroke-linecap="round"/><path d="M0 533h0c55.56 1.57 111.121 3.14 165 4 53.879.86 106.075 1.01 161-1s112.58-6.182 173-9c60.42-2.818 123.608-4.281 179-4 55.392.281 102.99 2.306 164 4 61.01 1.694 135.431 3.055 164 4 28.569.945 11.284 1.472 34 2" fill="none" stroke="#efefef" stroke-linecap="round"/></svg>